<?xml version="1.0" encoding="UTF-8" standalone="no"?> <svg id="Layer_1" data-name="Layer 1" xmlns="http://www.w3.org/2000/svg" viewBox="0 0 64 64"><defs><style>.cls-1{fill:#b3b3b3;}.cls-2{fill:#54a6ff;}</style></defs><title>pc</title><path class="cls-1" d="M54,41H10a7,7,0,0,1-7-7V10a7,7,0,0,1,7-7H54a7,7,0,0,1,7,7V34A7,7,0,0,1,54,41ZM10,5a5,5,0,0,0-5,5V34a5,5,0,0,0,5,5H54a5,5,0,0,0,5-5V10a5,5,0,0,0-5-5Z"/><path class="cls-1" d="M38,51H26a1,1,0,0,1-1-1V40a1,1,0,0,1,1-1H38a1,1,0,0,1,1,1V50A1,1,0,0,1,38,51ZM27,49H37V41H27Z"/><path class="cls-2" d="M48,61H16a3,3,0,0,1-3-3V52a3,3,0,0,1,3-3H48a3,3,0,0,1,3,3v6A3,3,0,0,1,48,61ZM16,51a1,1,0,0,0-1,1v6a1,1,0,0,0,1,1H48a1,1,0,0,0,1-1V52a1,1,0,0,0-1-1Z"/><path class="cls-1" d="M60,31H4a1,1,0,0,1,0-2H60a1,1,0,0,1,0,2Z"/><path class="cls-1" d="M45,38a3,3,0,1,1,3-3A3,3,0,0,1,45,38Zm0-4a1,1,0,1,0,1,1A1,1,0,0,0,45,34Z"/></svg>