<?xml version="1.0" encoding="UTF-8" standalone="no"?> <svg id="Layer_1" data-name="Layer 1" xmlns="http://www.w3.org/2000/svg" viewBox="0 0 64 64"><defs><style>.cls-1{fill:#b3b3b3;}.cls-2{fill:#54a6ff;}</style></defs><title>pin</title><path class="cls-1" d="M48,9H16a3,3,0,0,1,0-6H48a3,3,0,0,1,0,6ZM16,5a1,1,0,0,0,0,2H48a1,1,0,0,0,0-2Z"/><path class="cls-1" d="M40,31H24a1,1,0,0,1-.77-.36,1,1,0,0,1-.21-.82l4-22A1,1,0,0,1,28,7h8a1,1,0,0,1,1,.82l4,22a1,1,0,0,1-.21.82A1,1,0,0,1,40,31ZM25.2,29H38.8L35.17,9H28.83Z"/><path class="cls-1" d="M32,61a1,1,0,0,1-1-1V42a1,1,0,0,1,2,0V60A1,1,0,0,1,32,61Z"/><path class="cls-2" d="M55,43H9a1,1,0,0,1-1-1A13,13,0,0,1,21,29H43A13,13,0,0,1,56,42,1,1,0,0,1,55,43ZM10,41H54A11,11,0,0,0,43,31H21A11,11,0,0,0,10,41Z"/></svg>