<?xml version="1.0" encoding="UTF-8" standalone="no"?> <svg id="Layer_1" data-name="Layer 1" xmlns="http://www.w3.org/2000/svg" viewBox="0 0 64 64"><defs><style>.cls-1{fill:#54a6ff;}.cls-2{fill:#b3b3b3;}</style></defs><title>Align_8</title><path class="cls-1" d="M16,41a.84.84,0,0,1-.38-.08A1,1,0,0,1,15,40V36H10a1,1,0,0,1-1-1V29a1,1,0,0,1,1-1h5V24a1,1,0,0,1,.62-.92,1,1,0,0,1,1.09.21l8,8a1,1,0,0,1,0,1.42l-8,8A1,1,0,0,1,16,41Zm-5-7h5a1,1,0,0,1,1,1v2.59L22.59,32,17,26.41V29a1,1,0,0,1-1,1H11Z"/><path class="cls-2" d="M56,61H8a5,5,0,0,1-5-5V8A5,5,0,0,1,8,3H56a5,5,0,0,1,5,5V56A5,5,0,0,1,56,61ZM8,5A3,3,0,0,0,5,8V56a3,3,0,0,0,3,3H56a3,3,0,0,0,3-3V8a3,3,0,0,0-3-3Z"/><path class="cls-2" d="M55,26H37a1,1,0,0,1-1-1V21a1,1,0,0,1,1-1H55a1,1,0,0,1,1,1v4A1,1,0,0,1,55,26ZM38,24H54V22H38Z"/><path class="cls-2" d="M55,44H37a1,1,0,0,1-1-1V39a1,1,0,0,1,1-1H55a1,1,0,0,1,1,1v4A1,1,0,0,1,55,44ZM38,42H54V40H38Z"/><path class="cls-2" d="M47,17H37a1,1,0,0,1-1-1V12a1,1,0,0,1,1-1H47a1,1,0,0,1,1,1v4A1,1,0,0,1,47,17Zm-9-2h8V13H38Z"/><path class="cls-2" d="M47,53H37a1,1,0,0,1-1-1V48a1,1,0,0,1,1-1H47a1,1,0,0,1,1,1v4A1,1,0,0,1,47,53Zm-9-2h8V49H38Z"/><path class="cls-2" d="M47,35H37a1,1,0,0,1-1-1V30a1,1,0,0,1,1-1H47a1,1,0,0,1,1,1v4A1,1,0,0,1,47,35Zm-9-2h8V31H38Z"/><path class="cls-2" d="M32,56H28a1,1,0,0,1-1-1V9a1,1,0,0,1,1-1h4a1,1,0,0,1,1,1V55A1,1,0,0,1,32,56Zm-3-2h2V10H29Z"/></svg>