<?xml version="1.0" encoding="UTF-8" standalone="no"?> <svg id="Layer_1" data-name="Layer 1" xmlns="http://www.w3.org/2000/svg" viewBox="0 0 64 64"><defs><style>.cls-1{fill:#b3b3b3;}.cls-2{fill:#54a6ff;}</style></defs><title>Align_4</title><path class="cls-1" d="M56,61H8a5,5,0,0,1-5-5V8A5,5,0,0,1,8,3H56a5,5,0,0,1,5,5V56A5,5,0,0,1,56,61ZM8,5A3,3,0,0,0,5,8V56a3,3,0,0,0,3,3H56a3,3,0,0,0,3-3V8a3,3,0,0,0-3-3Z"/><path class="cls-1" d="M53,17H11a1,1,0,0,1-1-1V12a1,1,0,0,1,1-1H53a1,1,0,0,1,1,1v4A1,1,0,0,1,53,17ZM12,15H52V13H12Z"/><path class="cls-1" d="M53,35H11a1,1,0,0,1-1-1V30a1,1,0,0,1,1-1H53a1,1,0,0,1,1,1v4A1,1,0,0,1,53,35ZM12,33H52V31H12Z"/><path class="cls-1" d="M53,26H11a1,1,0,0,1-1-1V21a1,1,0,0,1,1-1H53a1,1,0,0,1,1,1v4A1,1,0,0,1,53,26ZM12,24H52V22H12Z"/><path class="cls-1" d="M53,44H11a1,1,0,0,1-1-1V39a1,1,0,0,1,1-1H53a1,1,0,0,1,1,1v4A1,1,0,0,1,53,44ZM12,42H52V40H12Z"/><path class="cls-2" d="M53,53H27a1,1,0,0,1-1-1V48a1,1,0,0,1,1-1H53a1,1,0,0,1,1,1v4A1,1,0,0,1,53,53ZM28,51H52V49H28Z"/></svg>